<svg width="34" height="33" viewBox="0 0 34 33" fill="none" xmlns="http://www.w3.org/2000/svg">
<path d="M25.6667 9.28697C26.5872 9.28697 27.3333 8.55119 27.3333 7.64349C27.3333 6.73579 26.5872 6 25.6667 6C24.7462 6 24 6.73579 24 7.64349C24 8.55119 24.7462 9.28697 25.6667 9.28697Z" fill="white"/>
<path d="M25.1683 2H8.50163C4.81973 2 1.83496 4.94326 1.83496 8.57395V25.0088C1.83496 28.6395 4.81973 31.5828 8.50163 31.5828H25.1683C28.8502 31.5828 31.835 28.6395 31.835 25.0088V8.57395C31.835 4.94326 28.8502 2 25.1683 2Z" stroke="white" stroke-width="2.33333" stroke-linejoin="round"/>
<path d="M16.8349 23.3652C20.5169 23.3652 23.5016 20.4219 23.5016 16.7912C23.5016 13.1605 20.5169 10.2173 16.8349 10.2173C13.153 10.2173 10.1683 13.1605 10.1683 16.7912C10.1683 20.4219 13.153 23.3652 16.8349 23.3652Z" stroke="white" stroke-width="2.33333" stroke-linejoin="round"/>
</svg>