<svg width="125" height="126" viewBox="0 0 125 126" fill="none" xmlns="http://www.w3.org/2000/svg">
<path d="M124.528 36.9353C124.452 31.6836 123.481 26.4736 121.622 21.5618C118.368 13.1743 111.743 6.54208 103.355 3.29532C98.5058 1.47075 93.379 0.492564 88.1897 0.381564C81.5158 0.0832506 79.3999 0 62.4585 0C45.517 0 43.3456 4.65197e-07 36.7203 0.381564C31.538 0.492564 26.4111 1.47075 21.5618 3.29532C13.1743 6.54208 6.54208 13.1743 3.29532 21.5618C1.47075 26.4111 0.485626 31.538 0.388501 36.7203C0.0901877 43.4011 0 45.517 0 62.4585C0 79.3999 -5.16885e-08 81.5644 0.388501 88.1966C0.492564 93.3859 1.47075 98.5058 3.29532 103.369C6.54902 111.75 13.1743 118.382 21.5687 121.629C26.3973 123.516 31.5241 124.584 36.7272 124.75C43.408 125.049 45.524 125.139 62.4654 125.139C79.4068 125.139 81.5783 125.139 88.2036 124.75C93.3859 124.646 98.5127 123.668 103.369 121.844C111.756 118.59 118.382 111.958 121.635 103.577C123.46 98.7209 124.438 93.601 124.542 88.4048C124.841 81.7309 124.931 79.6149 124.931 62.6666C124.917 45.7252 124.917 43.5745 124.528 36.9353V36.9353ZM62.4168 94.4959C44.6984 94.4959 30.3447 80.1422 30.3447 62.4238C30.3447 44.7054 44.6984 30.3516 62.4168 30.3516C80.1214 30.3516 94.489 44.7054 94.489 62.4238C94.489 80.1422 80.1214 94.4959 62.4168 94.4959ZM95.7655 36.644C91.6238 36.644 88.2868 33.3001 88.2868 29.1653C88.2868 25.0306 91.6238 21.6867 95.7655 21.6867C99.8933 21.6867 103.237 25.0306 103.237 29.1653C103.237 33.3001 99.8933 36.644 95.7655 36.644Z" fill="#171616"/>
<path d="M62.4167 83.2571C73.9227 83.2571 83.2501 73.9297 83.2501 62.4238C83.2501 50.9178 73.9227 41.5904 62.4167 41.5904C50.9108 41.5904 41.5834 50.9178 41.5834 62.4238C41.5834 73.9297 50.9108 83.2571 62.4167 83.2571Z" fill="#171616"/>
</svg>
