<svg width="36" height="30" viewBox="0 0 36 30" fill="none" xmlns="http://www.w3.org/2000/svg">
<path d="M32.351 1.07569C32.351 1.07569 35.5888 -0.169254 35.319 2.85418C35.229 4.09914 34.4196 8.45643 33.79 13.1695L31.6315 27.1306C31.6315 27.1306 31.4517 29.1759 29.8328 29.5316C28.2139 29.8873 25.7856 28.2867 25.3359 27.9309C24.9761 27.6642 18.5906 23.6625 16.3421 21.7062C15.7125 21.1727 14.993 20.1056 16.432 18.8606L25.8755 9.96819C26.9548 8.90108 28.034 6.41119 23.5371 9.43464L10.9459 17.8825C10.9459 17.8825 9.50688 18.7717 6.8088 17.9714L0.962812 16.1929C0.962812 16.1929 -1.1957 14.859 2.49175 13.5251C11.4855 9.34564 22.5479 5.07726 32.351 1.07569Z" fill="white"/>
</svg>