<svg width="25" height="25" viewBox="0 0 25 25" fill="none" xmlns="http://www.w3.org/2000/svg">
<path d="M6.635 22.39C8.36 23.425 10.43 24 12.5 24C18.825 24 24 18.825 24 12.5C24 6.175 18.825 1 12.5 1C6.175 1 1 6.175 1 12.5C1 14.57 1.575 16.525 2.495 18.25L1.506 22.0519C1.45498 22.2482 1.45676 22.4544 1.51117 22.6498C1.56558 22.8452 1.67069 23.0227 1.81582 23.1643C1.96096 23.3059 2.14097 23.4067 2.3376 23.4563C2.53423 23.5059 2.74048 23.5027 2.93545 23.4468L6.635 22.39Z" fill="#171616" stroke="#171616" stroke-width="1.5" stroke-miterlimit="10" stroke-linecap="round" stroke-linejoin="round"/>
<path d="M17.8077 15.8592C17.8077 16.0503 17.7652 16.2472 17.6744 16.4383C17.5818 16.6358 17.4601 16.8182 17.3135 16.9797C17.0528 17.2663 16.7662 17.4727 16.4407 17.606C16.1222 17.7393 15.7766 17.8077 15.4051 17.8077C14.8625 17.8077 14.2834 17.6803 13.6712 17.4208C13.0241 17.1403 12.4108 16.7873 11.843 16.3687C11.2256 15.9177 10.6428 15.4209 10.0998 14.8826C9.56245 14.3425 9.06683 13.7625 8.61714 13.1476C8.20388 12.5848 7.85419 11.978 7.57448 11.3382C7.31971 10.7308 7.19232 10.1528 7.19232 9.60201C7.19232 9.24109 7.25601 8.89668 7.3834 8.57822C7.51078 8.25386 7.71365 7.95663 7.99555 7.69124C8.33524 7.35627 8.70678 7.19232 9.10073 7.19232C9.24935 7.19232 9.39796 7.22417 9.53124 7.28786C9.66924 7.35155 9.79073 7.44709 9.88745 7.58509L11.1212 9.3213C11.2156 9.4534 11.2863 9.57607 11.3335 9.69283C11.3807 9.80371 11.4078 9.91576 11.4078 10.016C11.4063 10.1498 11.3675 10.2805 11.2958 10.3934C11.2139 10.5315 11.1139 10.6581 10.9985 10.7697L10.594 11.1896C10.5658 11.2171 10.5437 11.2502 10.5291 11.2868C10.5145 11.3234 10.5077 11.3626 10.509 11.4019C10.509 11.4432 10.5149 11.4809 10.5256 11.5234C10.5409 11.5659 10.5574 11.5977 10.568 11.6296C10.6624 11.8053 10.8275 12.0329 11.0622 12.3089C11.3017 12.5849 11.5564 12.8668 11.8324 13.1476C12.1202 13.4295 12.3962 13.6889 12.6781 13.9284C12.9541 14.1607 13.1829 14.32 13.3634 14.4155L13.4601 14.4591C13.5025 14.4743 13.5473 14.4815 13.5922 14.4804C13.6329 14.4812 13.6733 14.4736 13.7109 14.458C13.7485 14.4423 13.7824 14.419 13.8104 14.3896L14.2138 13.9909C14.3471 13.8588 14.4745 13.7585 14.5971 13.6937C14.7099 13.6218 14.8408 13.5833 14.9746 13.5828C15.0862 13.5844 15.1964 13.6081 15.2989 13.6524C15.4157 13.6996 15.5384 13.768 15.6705 13.8588L17.4303 15.1067C17.5578 15.1896 17.6592 15.307 17.7228 15.4452C17.7779 15.5763 17.8068 15.717 17.8077 15.8592Z" fill="white" stroke="white" stroke-width="0.5" stroke-miterlimit="10"/>
</svg>