<svg width="35" height="26" viewBox="0 0 35 26" fill="none" xmlns="http://www.w3.org/2000/svg">
<path d="M7.05471 1.62764C11.674 1.40059 15.2669 1.28711 17.8333 1.28711C20.4 1.28711 23.9942 1.40067 28.6158 1.62772C31.1175 1.75066 33.141 3.67994 33.3496 6.14131C33.561 8.63448 33.6666 10.8303 33.6666 12.7289C33.6666 14.6508 33.5584 16.8772 33.3418 19.4084C33.1338 21.8392 31.1544 23.7546 28.6858 23.9137C24.7346 24.1686 21.1171 24.2959 17.8333 24.2959C14.55 24.2959 10.9338 24.1686 6.98479 23.9139C4.51706 23.7547 2.53804 21.8405 2.32902 19.4107C2.10967 16.8606 2 14.6334 2 12.7289C2 10.8474 2.10705 8.65075 2.32117 6.13901H2.32117C2.53091 3.67863 4.55391 1.75057 7.05471 1.62764Z" fill="white" stroke="white" stroke-width="2.33333" stroke-linejoin="round"/>
<path d="M15.335 9.18296V16.4117C15.335 16.8007 15.6548 17.116 16.0492 17.116C16.1893 17.116 16.3263 17.0754 16.4431 16.9993L21.9411 13.416C22.2702 13.2015 22.3606 12.7645 22.1431 12.44C22.0911 12.3624 22.024 12.2958 21.9458 12.2439L16.4478 8.59845C16.1205 8.38135 15.6766 8.46714 15.4565 8.78992C15.3773 8.90611 15.335 9.04293 15.335 9.18296Z" fill="#171616" stroke="#171616" stroke-width="2.33333" stroke-linejoin="round"/>
</svg>